<?xml version="1.0" encoding="UTF-8"?>
<svg id="Capa_2" data-name="Capa 2" xmlns="http://www.w3.org/2000/svg" viewBox="0 0 48 48">
  <defs>
    <style>
      .cls-1 {
        fill: #fff;
      }
    </style>
  </defs>
  <g id="Capa_1-2" data-name="Capa 1">
    <g>
      <path d="M24,0C10.75,0,0,10.75,0,24s10.75,24,24,24,24-10.75,24-24S37.25,0,24,0ZM6.83,37.45V13.12H41.46v24.33H6.83Z"/>
      <path class="cls-1" d="M14.41,16.8h-.06c-1.45,1.49-2.93,2.94-4.4,4.42-.12,.13-.27,.23-.36,.39,1.6,1.59,3.19,3.19,4.78,4.77,1.59-1.58,3.17-3.18,4.76-4.76v-.06l-3.28-3.28c-.48-.5-1-.96-1.45-1.48Z"/>
      <path class="cls-1" d="M24.03,26.48c-1.57,1.57-3.14,3.14-4.71,4.71-.01,.03-.03,.07-.04,.1,1.08,1.06,2.14,2.13,3.21,3.2,.53,.5,1.02,1.05,1.57,1.54,.38-.33,.74-.74,1.11-1.09,1.14-1.14,2.29-2.29,3.43-3.42,.08-.1,.19-.16,.25-.28-1.59-1.57-3.16-3.15-4.74-4.73l-.07-.03Z"/>
      <path class="cls-1" d="M38.11,21.4c-1.2-1.2-2.4-2.4-3.6-3.6-.32-.33-.67-.64-.97-1h-.06c-.77,.81-1.57,1.58-2.36,2.38-.78,.77-1.54,1.56-2.33,2.32-1.53-1.49-3.02-3.01-4.53-4.51-.06-.06-.1-.12-.15-.19h-.06c-1.57,1.62-3.21,3.19-4.77,4.81,1.61,1.57,3.19,3.19,4.79,4.77,1.54-1.53,3.07-3.07,4.6-4.6,.04-.04,.08-.07,.11-.11,.04,.05,.1,.09,.14,.14l4.57,4.57c1.62-1.57,3.18-3.19,4.79-4.76-.02-.1-.12-.16-.18-.22Z"/>
      <path d="M6.83,13.12v24.33H41.46V13.12H6.83Zm12.32,8.5c-1.59,1.58-3.17,3.18-4.76,4.76-1.6-1.59-3.19-3.19-4.78-4.77,.08-.16,.24-.26,.36-.39,1.46-1.48,2.95-2.93,4.4-4.42h.06c.45,.52,.97,.98,1.45,1.48l3.28,3.28v.06Zm9.45,9.9c-1.14,1.14-2.29,2.29-3.43,3.42-.37,.36-.73,.76-1.11,1.09-.54-.49-1.04-1.04-1.57-1.54-1.07-1.07-2.13-2.14-3.21-3.2,.01-.03,.03-.07,.04-.1,1.57-1.57,3.14-3.13,4.71-4.71l.07,.03c1.57,1.58,3.15,3.16,4.74,4.73-.05,.12-.16,.19-.25,.28Zm4.9-5.14l-4.57-4.57s-.1-.09-.14-.14c-.04,.04-.08,.07-.11,.11-1.54,1.53-3.07,3.07-4.6,4.6-1.6-1.58-3.18-3.19-4.79-4.77,1.56-1.63,3.2-3.19,4.77-4.81h.06c.04,.07,.09,.13,.15,.19,1.51,1.5,3.01,3.02,4.53,4.51,.78-.77,1.55-1.55,2.33-2.32,.79-.79,1.59-1.57,2.36-2.38h.06c.3,.36,.65,.66,.97,1,1.2,1.2,2.4,2.4,3.6,3.6,.06,.07,.16,.13,.18,.22-1.61,1.57-3.17,3.19-4.79,4.76Z"/>
    </g>
  </g>
</svg>