<?xml version="1.0" encoding="UTF-8"?>
<svg id="Capa_2" data-name="Capa 2" xmlns="http://www.w3.org/2000/svg" viewBox="0 0 27.8 32">
  <defs>
    <style>
      .cls-1 {
        fill: #fff;
      }
    </style>
  </defs>
  <g id="Capa_1-2" data-name="Capa 1">
    <path class="cls-1" d="M14.6,.03c1.75-.03,3.48-.01,5.21-.03,.1,2.04,.84,4.12,2.33,5.56,1.49,1.48,3.6,2.16,5.65,2.38v5.37c-1.92-.06-3.85-.46-5.6-1.29-.76-.34-1.47-.79-2.16-1.24,0,3.9,.02,7.79-.02,11.67-.1,1.86-.72,3.72-1.8,5.26-1.74,2.56-4.77,4.22-7.88,4.28-1.91,.11-3.81-.41-5.44-1.37C2.2,29.03,.31,26.12,.03,23c-.03-.67-.04-1.33-.02-1.98,.24-2.54,1.5-4.96,3.44-6.61,2.21-1.92,5.3-2.84,8.2-2.3,.03,1.98-.05,3.95-.05,5.92-1.32-.43-2.87-.31-4.03,.5-.84,.55-1.48,1.39-1.82,2.33-.28,.68-.2,1.43-.18,2.15,.32,2.19,2.42,4.03,4.67,3.83,1.49-.02,2.92-.88,3.69-2.15,.25-.44,.53-.9,.55-1.42,.13-2.39,.08-4.76,.09-7.15,.01-5.38-.02-10.73,.02-16.09h0Z"/>
  </g>
</svg>