<?xml version="1.0" encoding="UTF-8"?>
<svg id="Capa_2" data-name="Capa 2" xmlns="http://www.w3.org/2000/svg" viewBox="0 0 508.15 357.11">
  <defs>
    <style>
      .cls-1 {
        fill: #fff;
      }
    </style>
  </defs>
  <g id="Layer_1" data-name="Layer 1">
    <path class="cls-1" d="M257.31,357.11c-57.1-1.8-111.4-3.2-165.7-5.3-11.7-.5-23.6-2.3-35-5-21.4-5-36.2-17.9-43.8-39-6.1-17-8.3-34.5-9.9-52.3C-.59,213.71-.59,171.91,1.11,130.11c1-23.6,1.6-47.4,7.9-70.3,3.8-13.7,8.4-27.1,19.5-37C40.21,12.31,53.91,6.01,69.51,5.31,112.31,3.21,155.01,.61,197.81,.21c57.6-.6,115.3,.2,172.9,1.3,24.9,.5,50,1.8,74.7,5,22.6,3,39.5,15.6,48.5,37.6,6.9,16.9,9.5,34.6,11,52.6,3.9,45.1,4,90.2,1.8,135.3-1.1,22.9-2.2,45.9-8.7,68.2-7.4,25.6-23.1,42.5-49.3,48.3-10.2,2.2-20.8,3-31.2,3.4-54.4,1.9-108.7,3.6-160.2,5.2Zm-55.3-113.7c45.6-23.6,90.7-47,136.7-70.9-45.9-24-91-47.5-136.7-71.4,0,47.7,0,94.6,0,142.3Z"/>
  </g>
</svg>